HIERARCHY
ROOT Hips
{
  OFFSET 55.5274 57.9372 -9.52834
  CHANNELS 6 Xposition Yposition Zposition Zrotation Xrotation Yrotation
  JOINT spine
  {
    OFFSET 0 6.84637 0.3937
    CHANNELS 3 Zrotation Xrotation Yrotation
    JOINT spine1
    {
      OFFSET 0 9.49621 0
      CHANNELS 3 Zrotation Xrotation Yrotation
      JOINT spine2
      {
        OFFSET 0 9.09909 0
        CHANNELS 3 Zrotation Xrotation Yrotation
        JOINT Neck
        {
          OFFSET 0 23.3612 1.11378
          CHANNELS 3 Zrotation Xrotation Yrotation
          JOINT Head
          {
            OFFSET 0 7.05802 0
            CHANNELS 3 Zrotation Xrotation Yrotation
            End Site
            {
              OFFSET 0 17.0844 -5.63419
            }
          }
        }
        JOINT RightShoulder
        {
          OFFSET -3.83136 9.82631 -0.533491
          CHANNELS 3 Zrotation Xrotation Yrotation
          JOINT RightArm
          {
            OFFSET 0 12.8881 0
            CHANNELS 3 Zrotation Xrotation Yrotation
            JOINT RightArmRoll
            {
              OFFSET 0 6.50617 0
              CHANNELS 3 Zrotation Xrotation Yrotation
              JOINT RightForeArm
              {
                OFFSET 0 18.9501 0
                CHANNELS 3 Zrotation Xrotation Yrotation
                JOINT RightForeArmRoll
                {
                  OFFSET 0 7.30093 0
                  CHANNELS 3 Zrotation Xrotation Yrotation
                  JOINT RightHand
                  {
                    OFFSET 0 14.6514 0
                    CHANNELS 3 Zrotation Xrotation Yrotation
                    End Site
                    {
                      OFFSET 0 0 0
                    }
                  }
                }
              }
            }
          }
        }
        JOINT LeftShoulder
        {
          OFFSET 3.83136 9.82631 -0.533491
          CHANNELS 3 Zrotation Xrotation Yrotation
          JOINT LeftArm
          {
            OFFSET 0 12.8881 0
            CHANNELS 3 Zrotation Xrotation Yrotation
            JOINT LeftArmRoll
            {
              OFFSET 0 6.50617 0
              CHANNELS 3 Zrotation Xrotation Yrotation
              JOINT LeftForeArm
              {
                OFFSET 0 18.9501 0
                CHANNELS 3 Zrotation Xrotation Yrotation
                JOINT LeftForeArmRoll
                {
                  OFFSET 0 7.30092 0
                  CHANNELS 3 Zrotation Xrotation Yrotation
                  JOINT LeftHand
                  {
                    OFFSET 0 14.6514 0
                    CHANNELS 3 Zrotation Xrotation Yrotation
                    End Site
                    {
                      OFFSET 0 0 0
                    }
                  }
                }
              }
            }
          }
        }
      }
    }
  }
  JOINT RightUpLeg
  {
    OFFSET -6.06837 -1.11278 -0.933477
    CHANNELS 3 Zrotation Xrotation Yrotation
    JOINT RightUpLegRoll
    {
      OFFSET 0 17.1796 0
      CHANNELS 3 Zrotation Xrotation Yrotation
      JOINT RightLeg
      {
        OFFSET 0 -21.2743 0
        CHANNELS 3 Zrotation Xrotation Yrotation
        JOINT RightLegRoll
        {
          OFFSET 0 21.3439 0
          CHANNELS 3 Zrotation Xrotation Yrotation
          JOINT RightFoot
          {
            OFFSET 0 17.7652 0
            CHANNELS 3 Zrotation Xrotation Yrotation
            JOINT RightToeBase
            {
              OFFSET 0 14.8508 0
              CHANNELS 3 Zrotation Xrotation Yrotation
              End Site
              {
                OFFSET 0.0062947 7.19215 -0.829004
              }
            }
          }
        }
      }
    }
  }
  JOINT LeftUpLeg
  {
    OFFSET 6.06837 -1.11278 -0.933477
    CHANNELS 3 Zrotation Xrotation Yrotation
    JOINT LeftUpLegRoll
    {
      OFFSET 0 17.1797 0
      CHANNELS 3 Zrotation Xrotation Yrotation
      JOINT LeftLeg
      {
        OFFSET 0 21.2742 0
        CHANNELS 3 Zrotation Xrotation Yrotation
        JOINT LeftLegRoll
        {
          OFFSET 0 21.5412 0
          CHANNELS 3 Zrotation Xrotation Yrotation
          JOINT LeftFoot
          {
            OFFSET 0 17.5679 0
            CHANNELS 3 Zrotation Xrotation Yrotation
            JOINT LeftToeBase
            {
              OFFSET 0 14.8508 0
              CHANNELS 3 Zrotation Xrotation Yrotation
              End Site
              {
                OFFSET -0.0282102 7.19213 -0.829005
              }
            }
          }
        }
      }
    }
  }
}
MOTION
Frames: 5
Frame Time: 0.00208333
56.5238 91.7094 32.281 0.904494 0.186418 -3.20878 0.0222097 -1.67571 -0.0423503 0.0338748 0.651382 -0.0749649 0.0347917 2.29645 -0.0755632 -6.91954 28.0164 3.47333 3.02338 -12.3042 1.12603 71.1169 8.27816 2.53305 103.029 12.6154 7.32531 1.91186e-007 -1.65953e-006 -3.38523e-006 13.9939 6.11018 -1.3414 -1.14385e-005 2.114e-006 -3 8.02892 -4.95144 0.697702 -66.2105 1.87829 -0.145548 -109.497 13.7761 -18.7433 -1.4629e-005 -2.21087e-006 6.30507e-006 -11.7544 0.0976316 0.500707 -3.94409e-006 1.12416e-007 3.04981 -8.02889 -4.95147 -0.69768 175.722 5.64134 0.957881 180 7.01565e-015 179.003 177.723 6.08932 179.939 3.98827e-006 -1.60974e-006 0.0503564 -18.5052 67.7265 19.3253 8.13649 25.2327 -3.48774 -176.462 1.84289 0.657268 4.54188e-006 -4.6773e-006 -1.06095 -1.78727 -5.91491 0.0775478 -4.08024e-007 -1.90172e-007 -0.0786893 18.7945 68.0881 -19.5968 -8.13649 25.2327 3.48774 
56.5205 91.7091 32.2681 0.893402 0.180484 -3.19006 0.023923 -1.66901 -0.0443706 0.0379666 0.66477 -0.0793418 0.0389383 2.30984 -0.0800105 -6.93881 28.0501 3.47909 3.03226 -12.2912 1.12307 71.1104 8.30081 2.54512 103.026 12.6507 7.3078 1.91186e-007 -1.65953e-006 -3.38523e-006 14.0037 6.07802 -1.33638 -1.14385e-005 2.114e-006 -3 8.02892 -4.95144 0.697702 -66.224 1.89858 -0.154448 -109.473 13.8409 -18.7382 -1.4629e-005 -2.21087e-006 6.30507e-006 -11.7437 0.0976353 0.508263 -3.94409e-006 1.12416e-007 3.05016 -8.02889 -4.95147 -0.69768 175.737 5.62929 0.94649 180 7.01565e-015 179.003 177.727 6.06916 179.938 3.98827e-006 -1.60974e-006 0.0504861 -18.495 67.7141 19.3142 8.13649 25.2327 -3.48774 -176.449 1.85524 0.650871 4.54188e-006 -4.6773e-006 -1.06101 -1.7868 -5.92956 0.0774897 -4.08024e-007 -1.90172e-007 -0.07869 18.7977 68.0919 -19.6003 -8.13649 25.2327 3.48774 
56.5229 91.7088 32.2611 0.881913 0.174059 -3.17095 0.025676 -1.66237 -0.0465467 0.0421614 0.678038 -0.0840196 0.0431915 2.32311 -0.0847607 -6.95837 28.084 3.48578 3.04017 -12.2772 1.12067 71.1046 8.32432 2.55742 103.022 12.6853 7.29089 1.91186e-007 -1.65953e-006 -3.38523e-006 14.0134 6.0458 -1.33138 -1.14385e-005 2.114e-006 -3 8.02892 -4.95144 0.697702 -66.2379 1.91883 -0.163282 -109.449 13.905 -18.7344 -1.4629e-005 -2.21087e-006 6.30507e-006 -11.7325 0.0976393 0.51586 -3.94409e-006 1.12416e-007 3.05049 -8.02889 -4.95147 -0.69768 175.753 5.6158 0.934886 180 7.01565e-015 179.003 177.731 6.04806 179.937 3.98827e-006 -1.60974e-006 0.0506213 -18.4848 67.7015 19.3031 8.13649 25.2327 -3.48774 -176.436 1.86664 0.644231 4.54188e-006 -4.6773e-006 -1.06108 -1.78633 -5.94387 0.0774185 -4.08024e-007 -1.90172e-007 -0.0786911 18.8009 68.0957 -19.6038 -8.13649 25.2327 3.48774 
56.5225 91.7096 32.2473 0.870148 0.16729 -3.15157 0.027457 -1.65578 -0.048832 0.0464291 0.69122 -0.0889079 0.0475203 2.33629 -0.0897227 -6.97813 28.1181 3.49312 3.0474 -12.2625 1.11868 71.0994 8.34842 2.5699 103.018 12.7193 7.27439 1.91186e-007 -1.65953e-006 -3.38523e-006 14.023 6.01356 -1.32639 -1.14385e-005 2.114e-006 -3 8.02892 -4.95144 0.697702 -66.252 1.93906 -0.172071 -109.424 13.9685 -18.7314 -1.4629e-005 -2.21087e-006 6.30507e-006 -11.7208 0.0976435 0.523486 -3.94409e-006 1.12416e-007 3.0508 -8.02889 -4.95147 -0.69768 175.769 5.60131 0.923135 180 7.01565e-015 179.003 177.735 6.02627 179.937 3.98827e-006 -1.60974e-006 0.0507603 -18.4745 67.6889 19.2919 8.13649 25.2327 -3.48774 -176.422 1.87738 0.637422 4.54188e-006 -4.6773e-006 -1.06118 -1.78586 -5.95793 0.0773383 -4.08024e-007 -1.90172e-007 -0.0786925 18.8042 68.0995 -19.6073 -8.13649 25.2327 3.48774 
56.5242 91.7121 32.2413 0.858226 0.160324 -3.13204 0.0292543 -1.64921 -0.0511797 0.0507395 0.704355 -0.0939166 0.0518932 2.34943 -0.094806 -6.99801 28.1522 3.50084 3.05424 -12.2474 1.11693 71.0945 8.37287 2.58248 103.013 12.753 7.25814 1.91186e-007 -1.65953e-006 -3.38523e-006 14.0327 5.9813 -1.3214 -1.14385e-005 2.114e-006 -3 8.02892 -4.95144 0.697702 -66.2662 1.95927 -0.180833 -109.399 14.0318 -18.7289 -1.4629e-005 -2.21087e-006 6.30507e-006 -11.7089 0.0976477 0.531128 -3.94409e-006 1.12416e-007 3.0511 -8.02889 -4.95147 -0.69768 175.786 5.58624 0.911298 180 7.01565e-015 179.003 177.739 6.0041 179.936 3.98827e-006 -1.60974e-006 0.0509014 -18.4642 67.6762 19.2806 8.13649 25.2327 -3.48774 -176.408 1.88773 0.630516 4.54188e-006 -4.6773e-006 -1.06129 -1.7854 -5.97187 0.0772528 -4.08024e-007 -1.90172e-007 -0.078694 18.8074 68.1032 -19.6107 -8.13649 25.2327 3.48774 
